<mxfile host="app.diagrams.net" modified="2022-11-11T10:03:25.901Z" agent="5.0 (Macintosh; Intel Mac OS X 10_15_7) AppleWebKit/537.36 (KHTML, like Gecko) Chrome/107.0.0.0 Safari/537.36" etag="DDL-4G4pyMk4drIlQnJ_" version="20.5.3" type="github">
  <diagram id="m2nc2vaszlw0PX9yCNmE" name="Page-1">
    <mxGraphModel dx="1426" dy="800" grid="1" gridSize="10" guides="1" tooltips="1" connect="1" arrows="1" fold="1" page="1" pageScale="1" pageWidth="850" pageHeight="1100" math="0" shadow="0">
      <root>
        <mxCell id="0" />
        <mxCell id="1" parent="0" />
        <mxCell id="sGnyk_94gpnCntftPBTW-1" value="" style="rounded=0;whiteSpace=wrap;html=1;fillColor=#d5e8d4;strokeColor=#82b366;" vertex="1" parent="1">
          <mxGeometry x="160" y="160" width="910" height="520" as="geometry" />
        </mxCell>
        <mxCell id="sGnyk_94gpnCntftPBTW-2" value="&lt;font style=&quot;font-size: 14px;&quot;&gt;Orion Controller&lt;/font&gt;" style="rounded=1;whiteSpace=wrap;html=1;fillColor=#fff2cc;strokeColor=#d6b656;" vertex="1" parent="1">
          <mxGeometry x="510" y="370" width="210" height="100" as="geometry" />
        </mxCell>
        <mxCell id="sGnyk_94gpnCntftPBTW-4" value="CUDA10&lt;br&gt;VGPU CLIENT" style="ellipse;whiteSpace=wrap;html=1;aspect=fixed;fillColor=#dae8fc;strokeColor=#6c8ebf;" vertex="1" parent="1">
          <mxGeometry x="280" y="365" width="110" height="110" as="geometry" />
        </mxCell>
        <mxCell id="sGnyk_94gpnCntftPBTW-7" value="" style="rhombus;whiteSpace=wrap;html=1;fontSize=14;fillColor=#ffe6cc;strokeColor=#d79b00;" vertex="1" parent="1">
          <mxGeometry x="830" y="220" width="140" height="120" as="geometry" />
        </mxCell>
        <mxCell id="sGnyk_94gpnCntftPBTW-8" value="" style="rhombus;whiteSpace=wrap;html=1;fontSize=14;fillColor=#ffe6cc;strokeColor=#d79b00;" vertex="1" parent="1">
          <mxGeometry x="830" y="490" width="140" height="120" as="geometry" />
        </mxCell>
      </root>
    </mxGraphModel>
  </diagram>
</mxfile>
